<?xml version="1.0" standalone="no"?>
<!DOCTYPE svg PUBLIC "-//W3C//DTD SVG 20010904//EN"
 "http://www.w3.org/TR/2001/REC-SVG-20010904/DTD/svg10.dtd">
<svg version="1.0" xmlns="http://www.w3.org/2000/svg"
 width="1736.000000pt" height="1736.000000pt" viewBox="0 0 1736.000000 1736.000000"
 preserveAspectRatio="xMidYMid meet">
<metadata>
Created by potrace 1.11, written by Peter Selinger 2001-2013
</metadata>
<g transform="translate(0.000000,1736.000000) scale(0.100000,-0.100000)"
fill="#000000" stroke="none">
<path d="M2586 13523 c-1 -1 -42 -5 -91 -8 -50 -3 -115 -10 -145 -15 -30 -5
-72 -12 -94 -15 -21 -3 -42 -7 -46 -10 -4 -2 -22 -7 -41 -9 -189 -26 -563
-179 -784 -321 -40 -25 -199 -138 -205 -145 -3 -3 -33 -28 -67 -55 -60 -48
-234 -221 -298 -295 -202 -237 -375 -550 -469 -849 -33 -105 -72 -268 -81
-341 -4 -30 -8 -57 -10 -60 -2 -3 -7 -39 -12 -80 -11 -98 -11 -5186 1 -5270 4
-36 10 -74 12 -85 2 -11 6 -40 9 -65 12 -101 103 -427 127 -457 6 -7 8 -13 5
-13 -8 0 72 -179 123 -275 40 -75 168 -278 203 -321 154 -190 243 -284 387
-409 82 -70 250 -189 335 -236 33 -18 62 -35 65 -38 3 -4 43 -24 90 -47 73
-35 121 -56 235 -104 39 -16 80 -30 100 -35 11 -2 58 -16 105 -30 47 -14 96
-27 110 -30 26 -5 110 -21 145 -29 20 -4 98 -14 185 -23 53 -6 4960 -11 4977
-5 10 3 -51 111 -142 252 -13 19 -85 136 -161 260 -150 246 -190 311 -246 401
-21 33 -38 64 -38 69 0 6 -4 10 -10 10 -5 0 -10 7 -10 15 0 8 -4 15 -9 15 -5
0 -11 8 -14 18 -3 9 -40 71 -81 137 -42 66 -86 137 -98 159 -13 21 -28 46 -33
55 -12 18 -54 87 -72 116 -6 11 -96 157 -200 324 -209 338 -227 366 -245 399
-18 32 -355 579 -383 622 -37 57 -79 124 -91 145 -13 24 -354 580 -399 650
-17 28 -42 68 -55 90 -13 22 -28 42 -32 43 -4 2 -8 8 -8 13 0 8 -58 107 -105
179 -47 71 -479 776 -489 797 -6 13 -14 23 -18 23 -5 0 -8 6 -8 14 0 7 -9 25
-21 40 l-21 26 33 51 c18 28 37 56 43 62 6 7 41 57 79 112 37 55 91 134 120
175 92 131 122 173 177 255 30 44 58 82 63 83 4 2 7 8 7 12 0 5 21 38 48 74
46 62 151 214 279 400 34 50 66 96 70 101 5 6 49 69 98 140 49 72 124 180 166
240 43 61 92 130 109 155 33 47 372 534 390 560 5 8 38 56 73 105 34 50 88
126 118 170 31 44 76 109 101 145 25 36 127 182 226 325 99 143 190 274 202
290 22 31 336 483 412 593 24 34 49 70 56 80 12 16 209 298 308 442 25 36 69
100 99 143 30 42 55 80 55 85 0 6 -5208 11 -5214 5z"/>
<path d="M9690 13520 c0 -3 34 -18 75 -33 41 -16 97 -38 123 -50 26 -11 49
-21 52 -22 10 -1 316 -151 375 -185 107 -60 136 -77 218 -127 48 -29 87 -50
87 -46 0 5 4 3 8 -3 4 -6 59 -46 122 -89 127 -87 302 -215 354 -260 6 -5 54
-46 106 -90 241 -203 516 -485 700 -718 8 -11 20 -24 25 -31 6 -6 22 -27 35
-46 13 -19 27 -37 30 -40 3 -3 35 -45 70 -95 35 -49 75 -106 89 -125 15 -19
33 -48 41 -63 8 -16 24 -40 37 -53 12 -14 22 -25 20 -27 -1 -1 21 -39 48 -85
84 -141 112 -191 198 -362 76 -151 197 -417 197 -435 0 -4 6 -21 14 -38 69
-153 196 -586 242 -822 4 -22 8 -42 9 -45 0 -3 5 -27 10 -55 4 -27 10 -57 12
-65 2 -8 5 -28 8 -45 2 -16 7 -48 10 -70 3 -22 8 -56 10 -75 2 -19 6 -51 9
-70 13 -90 19 -157 31 -350 7 -102 7 -454 0 -575 -6 -114 -15 -240 -20 -265
-4 -25 -9 -58 -20 -159 -4 -30 -9 -63 -11 -75 -6 -29 -13 -74 -18 -116 -2 -19
-7 -42 -10 -50 -3 -8 -7 -31 -10 -50 -3 -19 -8 -46 -11 -60 -3 -14 -7 -37 -10
-52 -3 -15 -19 -79 -35 -142 -16 -64 -32 -126 -34 -138 -2 -13 -11 -42 -20
-66 -8 -23 -15 -45 -15 -48 1 -2 -3 -17 -9 -32 -5 -15 -20 -58 -31 -97 -31
-99 -121 -338 -133 -352 -6 -7 -8 -13 -5 -13 5 0 -12 -41 -65 -160 -41 -91
-138 -283 -149 -296 -6 -8 -9 -14 -5 -14 3 0 -10 -25 -29 -55 -19 -30 -35 -57
-35 -60 0 -6 -148 -252 -162 -270 -5 -5 -45 -63 -89 -128 -44 -65 -86 -125
-94 -135 -8 -9 -51 -64 -96 -122 -44 -58 -84 -107 -88 -110 -4 -3 -17 -18 -30
-35 -98 -129 -414 -447 -590 -595 -132 -111 -163 -136 -216 -175 -22 -16 -42
-32 -45 -36 -12 -14 -300 -213 -361 -249 -14 -8 -70 -42 -125 -75 -123 -74
-229 -131 -361 -195 -57 -27 -103 -51 -103 -52 0 -6 4841 0 4906 6 39 3 79 8
90 10 48 9 110 20 119 21 59 5 307 70 370 96 17 7 36 13 44 15 19 4 179 72
231 99 71 36 138 72 165 89 77 48 257 169 268 181 8 7 43 37 78 66 61 51 224
211 281 277 44 51 178 229 178 237 0 4 11 20 25 37 14 16 25 36 25 43 0 7 3
15 8 17 19 8 167 301 188 373 2 6 17 47 33 92 45 121 90 299 107 418 3 22 7
47 9 55 2 8 7 56 12 105 9 106 10 5077 0 5180 -13 149 -58 399 -78 437 -5 10
-8 18 -5 18 2 0 -14 51 -35 113 -22 61 -41 120 -43 129 -3 9 -36 81 -74 160
-223 457 -558 818 -992 1070 -142 83 -394 197 -442 201 -10 1 -18 4 -18 7 0 4
-6 7 -12 8 -7 0 -38 8 -68 17 -82 24 -121 34 -160 41 -19 3 -48 9 -65 14 -16
5 -57 12 -90 15 -32 4 -62 8 -65 10 -3 2 -46 7 -95 11 -100 8 -5225 12 -5225
4z"/>
</g>
</svg>
